<svg xmlns="http://www.w3.org/2000/svg" data-name="Logo Core" width="105" height="23.635000228881836" style=""><rect id="backgroundrect" width="100%" height="100%" x="0" y="0" fill="none" stroke="none"/>
  
  
  
  
  
  
  
  
<g class="currentLayer" style=""><title>Layer 1</title><path id="Path_3" d="M81.39301074218747,23.576987792968737 H77.71101074218745 V7.149987792968773 h3.6820000000000004 z" fill="#000000" class="" fill-opacity="1"/><path id="Path_6" d="M7.991996948242189,10.518006835937513 a4.078,4.078 0 0 0 -3.04,1.3 a4.8870000000000005,4.8870000000000005 0 0 0 -1.242,3.539 a4.94,4.94 0 0 0 1.256,3.582 a4.132,4.132 0 0 0 3.083,1.3130000000000002 a3.783,3.783 0 0 0 2.612,-0.8850000000000001 a4.353,4.353 0 0 0 1.3,-2 l3.254,1.185 a7.3870000000000005,7.3870000000000005 0 0 1 -2.483,3.582 a7.166,7.166 0 0 1 -4.681,1.5 a7.6770000000000005,7.6770000000000005 0 0 1 -5.737,-2.369 a8.746,8.746 0 0 1 -0.029000000000000005,-11.817 a7.632,7.632 0 0 1 5.68,-2.341 a7.288,7.288 0 0 1 4.753,1.5 a6.847,6.847 0 0 1 2.383,3.611 l-3.325,1.213 a4.173,4.173 0 0 0 -1.227,-2.055 A3.638,3.638 0 0 0 7.991996948242189,10.518006835937513 z" fill="#000000" class="" fill-opacity="1"/><path id="Path_7" d="M21.3220012207031,18.8960068359375 a4.428,4.428 0 0 0 6.28,0.014000000000000002 a4.932,4.932 0 0 0 1.284,-3.625 a4.815,4.815 0 0 0 -1.284,-3.568 a4.48,4.48 0 0 0 -6.28,0 a4.815,4.815 0 0 0 -1.284,3.568 A4.942,4.942 0 0 0 21.3220012207031,18.8960068359375 zm3.14,-11.789 a7.933,7.933 0 1 1 -5.866,2.3120000000000003 a7.991,7.991 0 0 1 5.866,-2.3120000000000003 z" fill="#000000" class="" fill-opacity="1"/><path id="Path_1" d="M42.288995605468756,7.211004638671852 v3.754 a8.69,8.69 0 0 0 -1.213,-0.1 c-2.8,0 -4.182,1.37 -4.182,4.41 v8.249 H33.18299560546876 v-16.37 h3.611 v2.6260000000000003 a4.1,4.1 0 0 1 1.7550000000000001,-1.955 a5.293,5.293 0 0 1 2.755,-0.7140000000000001 A4.523,4.523 0 0 1 42.288995605468756,7.211004638671852 z" fill="#000000" class="" fill-opacity="1"/><path id="Path_8" d="M47.354998779296864,13.612011718750011 h8.263 a3.417,3.417 0 0 0 -1.127,-2.441 a4.267,4.267 0 0 0 -3.026,-0.985 a4.063,4.063 0 0 0 -2.9,1.028 A3.56,3.56 0 0 0 47.354998779296864,13.612011718750011 zm8.706,4.025 l3.382,0.985 a6.989,6.989 0 0 1 -2.712,3.511 a8.321,8.321 0 0 1 -4.9,1.3840000000000001 a8.8,8.8 0 0 1 -6.094,-2.255 a7.715,7.715 0 0 1 -2.512,-6.037 a7.627,7.627 0 0 1 2.44,-5.837 a8.929,8.929 0 0 1 11.8,-0.11400000000000002 a7.893,7.893 0 0 1 2.184,5.852 a3.553,3.553 0 0 1 -0.1,1.17 h-12.3 a3.9,3.9 0 0 0 1.4,2.883 a4.756,4.756 0 0 0 3.2,1.142 A3.982,3.982 0 0 0 56.06099877929688,17.640011718749975 z" fill="#000000" class="" fill-opacity="1"/><path id="Path_2" d="M64.21002880859373,23.576999999999998 H60.442028808593705 V0 h3.8 v9.491 a4.532,4.532 0 0 1 1.969,-1.6560000000000001 a7.03,7.03 0 0 1 3.14,-0.6710000000000002 a6.927,6.927 0 0 1 5.523,2.284 a9.539,9.539 0 0 1 -0.1,11.774000000000001 a7.1,7.1 0 0 1 -5.552,2.3120000000000003 a5.455,5.455 0 0 1 -5.009,-2.455 zm7.521,-4.667 a5.923,5.923 0 0 0 0.014000000000000002,-7.165 a4.479,4.479 0 0 0 -6.308,0 a4.928,4.928 0 0 0 -1.227,3.568 A5.123,5.123 0 0 0 65.4420288085937,18.899999999999977 a4.378,4.378 0 0 0 6.2940000000000005,0.014000000000000002 z" fill="#000000" class="" fill-opacity="1"/><path id="Path_4" d="M98.80602978515628,23.562987792968727 H82.56402978515621 v-3.225 l10.262,-9.933 H82.39302978515627 V7.149987792968773 h16.384 v3.126 l-10.39,10.019 h10.419 v3.268 z" fill="#000000" class="" fill-opacity="1"/><path id="Path_5" d="M100.36097949218754,22.77799926757814 a2.607,2.607 0 0 1 -0.785,-1.913 a2.6390000000000002,2.6390000000000002 0 0 1 0.785,-1.927 a2.544,2.544 0 0 1 1.912,-0.8 a2.729,2.729 0 0 1 2.726,2.726 a2.544,2.544 0 0 1 -0.8,1.913 a2.662,2.662 0 0 1 -1.927,0.785 A2.607,2.607 0 0 1 100.36097949218754,22.77799926757814 z" fill="silver"/></g></svg>