<svg id="Capa_1" enable-background="new 0 0 512 512" height="512" viewBox="0 0 512 512" width="512" xmlns="http://www.w3.org/2000/svg"><g><path d="m216.976 371h.01.016 159.989c.009 0 .018.001.027.001.01 0 .021-.001.031-.001h79.951c7.202 0 13.388-5.119 14.735-12.193l40-210c.836-4.391-.329-8.926-3.178-12.37-2.85-3.443-7.087-5.437-11.557-5.437h-97.417c-.014 0-.028 0-.042 0h-279.532l-8.968-62.778c-3.845-26.921-27.253-47.222-54.447-47.222h-41.594c-8.284 0-15 6.716-15 15s6.716 15 15 15h41.594c12.361 0 23.001 9.228 24.749 21.465l40.657 284.6v28.935c0 22.357 16.391 40.951 37.786 44.414-1.8 4.859-2.786 10.109-2.786 15.586 0 24.813 20.187 45 45 45s45-20.187 45-45c0-5.258-.915-10.305-2.58-15h105.16c-1.665 4.695-2.58 9.742-2.58 15 0 24.813 20.187 45 45 45s45-20.187 45-45c0-5.258-.915-10.305-2.58-15h22.58c8.284 0 15-6.716 15-15s-6.716-15-15-15h-290c-8.271 0-15-6.729-15-15v-15zm.024 75c0 8.271-6.729 15-15 15s-15-6.729-15-15 6.729-15 15-15 15 6.729 15 15zm190 0c0 8.271-6.729 15-15 15s-15-6.729-15-15 6.729-15 15-15 15 6.729 15 15zm-94.639-105 4.286-180h66.16l-19.286 180zm-30.008 0h-51.219l-10.714-180h66.219zm162.234 0h-50.894l19.286-180h65.894zm-254.221-180 10.714 180h-51.071l-25.714-180z"/></g></svg>